<?xml version="1.0" encoding="iso-8859-1"?>
<!-- Generator: Adobe Illustrator 18.0.0, SVG Export Plug-In . SVG Version: 6.00 Build 0)  -->
<!DOCTYPE svg PUBLIC "-//W3C//DTD SVG 1.1//EN" "http://www.w3.org/Graphics/SVG/1.1/DTD/svg11.dtd">
<svg version="1.1" id="Capa_1" xmlns="http://www.w3.org/2000/svg" xmlns:xlink="http://www.w3.org/1999/xlink" x="0px" y="0px"
	 viewBox="0 0 351.13 351.13" style="enable-background:new 0 0 351.13 351.13;" xml:space="preserve">
<g>
	<path style="fill:#7CCFED;" d="M345.69,181c0,89.88-69.7,163.48-158,169.7c-4.01,0.29-8.05,0.43-12.13,0.43
		c-22.92,0-44.78-4.53-64.74-12.76c-9.96-4.1-19.44-9.12-28.35-14.95C36.08,293.03,5.44,240.6,5.44,181c0-2.98,0.08-5.95,0.23-8.89
		c0.5-9.78,1.83-19.35,3.92-28.63C25.32,73.6,84.04,20.02,156.5,11.94c5.74-0.64,11.57-1,17.47-1.05c0.53-0.01,1.06-0.01,1.59-0.01
		c0.52,0,1.05,0,1.57,0.01c3.73,0.03,7.44,0.19,11.11,0.46c58.62,4.32,108.99,38.33,136.09,87.07c2.19,3.92,4.22,7.93,6.08,12.03
		c6.52,14.28,11.12,29.62,13.47,45.69C345.07,164.25,345.69,172.55,345.69,181z"/>
	<path style="fill:#666666;" d="M208.94,86.93l-85.73,7.14c10.16-32.05,28.08-61.09,52.16-84.56L185.13,0l20.88,76.25L208.94,86.93z
		"/>
	<path style="fill:#666666;" d="M291.278,137.81c7.671,1.712,12.375,9.477,10.471,17.102l-2.069,8.288l-1.44,5.76
		c-3.36,13.47-15.47,22.93-29.36,22.93h-5.31c0,7.98,6.47,14.45,14.45,14.45h9.11c-10.36,20.52-30.42,34.76-53.54,37.52
		c-2.71,0.32-5.46,0.49-8.24,0.49h-15.57c-29.24,0-54.49,20.46-60.56,49.06c-2.17,10.24-6.87,19.6-13.45,27.33
		c-6.6,7.73-15.09,13.84-24.88,17.6l-0.07,0.03c-9.96-4.1-19.44-9.12-28.35-14.95c-16.97-11.12-31.83-25.19-43.86-41.48
		c-2.16-2.93-4.24-5.94-6.21-9.01C15.33,246.43,5.44,214.87,5.44,181c0-2.98,0.08-5.95,0.23-8.89c0.5-9.78,1.83-19.35,3.92-28.63
		l26.1-19.08c28.04-20.49,59.44-35.47,92.56-44.41c23.76-6.42,48.39-9.73,73.3-9.73c0.95,0,1.9,0.02,2.84,0.06
		c13.07,0.55,25.4,4.85,35.74,12.04c11.07,7.69,19.85,18.7,24.77,31.95c2.88,7.76,8.02,14.21,14.53,18.73
		c0.92,0.64,1.88,1.25,2.85,1.81C284.315,136.021,287.708,137.013,291.278,137.81z"/>
	<path style="fill:#999999;" d="M204.39,70.32l-23.82,12.02c-12-42,4.56-82.34,4.56-82.34L204.39,70.32z"/>
	<path style="fill:#4D4D4D;" d="M302.773,150.826l-3.092,12.374c-10.336-2.572-18.005-11.92-18.005-23.066
		c0-1.822,0.202-3.584,0.607-5.287c2.71,1.563,7.838,2.808,12.581,3.696C300.549,139.608,304.175,145.216,302.773,150.826z"/>
	<path style="fill:#4D4D4D;" d="M227.027,124.224l5.927-5.927c4.729-4.729,12.396-4.729,17.124,0l0,0
		c3.273,3.273,3.273,8.58,0,11.853l0,0c-4.729,4.729-12.396,4.729-17.124,0L227.027,124.224z"/>
	<path style="fill:#808080;" d="M280.75,163.2c-17.385,0-33.008,7.496-43.83,19.43c-10.26,11.315-24.614,18.052-39.887,18.031
		l-1.029-0.001c-62.273,0-121.666,26.236-163.604,72.27l0,0c1.97,3.07,4.05,6.08,6.21,9.01c12.03,16.29,26.89,30.36,43.86,41.48
		c8.91,5.83,18.39,10.85,28.35,14.95l0.07-0.03c9.79-3.76,18.28-9.87,24.88-17.6c6.58-7.73,11.28-17.09,13.45-27.33
		c6.07-28.6,31.32-49.06,60.56-49.06h11.79h3.78c26.53,0,50.21-15.09,61.78-38.01h-9.11c-7.98,0-14.45-6.47-14.45-14.45h5.31
		c13.89,0,26-9.46,29.36-22.93l1.44-5.76H280.75z"/>
</g>
<g>
</g>
<g>
</g>
<g>
</g>
<g>
</g>
<g>
</g>
<g>
</g>
<g>
</g>
<g>
</g>
<g>
</g>
<g>
</g>
<g>
</g>
<g>
</g>
<g>
</g>
<g>
</g>
<g>
</g>
</svg>
